<svg xmlns="http://www.w3.org/2000/svg" width="800.0" height="264.0" viewBox="0 0 800.0 264.0"><path fill-rule="evenodd" fill="black" d="M 127.86,0.36 L 133.75,0.00 L 139.68,0.00 L 145.60,0.00 L 151.52,0.00 L 157.45,0.00 L 163.37,0.00 L 169.29,0.00 L 175.19,0.37 L 181.06,1.00 L 186.98,1.16 L 192.84,2.00 L 198.74,2.29 L 204.61,3.00 L 210.47,3.75 L 216.35,4.39 L 222.22,5.06 L 228.07,5.97 L 233.94,6.66 L 239.80,7.47 L 245.65,8.44 L 251.51,9.25 L 257.35,10.23 L 263.20,11.20 L 269.04,12.17 L 274.88,13.15 L 280.69,14.28 L 286.53,15.26 L 292.34,16.39 L 298.15,17.52 L 303.91,18.84 L 309.65,20.22 L 315.40,21.57 L 321.12,23.05 L 326.85,24.47 L 332.54,26.02 L 338.16,27.87 L 343.78,29.71 L 349.39,31.57 L 355.06,33.22 L 360.73,34.89 L 366.43,36.41 L 372.20,37.70 L 378.00,38.83 L 383.85,39.81 L 389.72,40.45 L 395.60,41.00 L 401.53,41.00 L 407.45,40.93 L 413.30,40.02 L 419.17,39.31 L 425.01,38.33 L 430.79,37.08 L 436.50,35.58 L 442.22,34.11 L 447.90,32.52 L 453.51,30.63 L 459.11,28.75 L 464.73,26.91 L 470.44,25.38 L 476.09,23.66 L 481.85,22.36 L 487.54,20.81 L 493.34,19.61 L 499.10,18.29 L 504.87,17.02 L 510.69,15.95 L 516.48,14.75 L 522.29,13.62 L 528.13,12.64 L 533.97,11.67 L 539.82,10.70 L 545.66,9.72 L 551.52,8.91 L 557.36,7.94 L 563.21,7.02 L 569.07,6.16 L 574.95,5.51 L 580.82,4.86 L 586.68,4.00 L 592.54,3.24 L 598.43,2.76 L 604.29,2.00 L 610.19,1.63 L 616.07,1.00 L 621.98,0.84 L 627.84,0.00 L 633.76,0.00 L 639.68,0.00 L 645.61,0.00 L 651.53,0.00 L 657.45,0.00 L 663.38,0.00 L 669.30,0.00 L 675.17,0.69 L 681.07,1.00 L 686.99,1.00 L 692.92,1.00 L 698.79,1.63 L 704.69,2.00 L 710.61,2.00 L 716.52,2.25 L 722.38,3.00 L 728.30,3.00 L 734.19,3.53 L 740.07,4.00 L 746.00,4.00 L 751.86,4.81 L 757.77,5.00 L 763.67,5.28 L 769.54,6.00 L 775.44,6.24 L 781.31,7.00 L 787.19,7.52 L 793.10,7.53 L 797.71,10.98 L 799.59,16.56 L 800.00,22.46 L 800.00,28.38 L 799.94,34.30 L 799.03,40.15 L 798.66,46.05 L 797.85,51.91 L 796.71,57.72 L 794.60,63.19 L 789.83,66.60 L 785.27,70.31 L 782.28,75.40 L 780.05,80.88 L 778.19,86.49 L 776.46,92.14 L 774.74,97.79 L 773.41,103.54 L 771.90,109.25 L 770.66,115.03 L 769.37,120.80 L 768.23,126.60 L 767.03,132.40 L 765.81,138.19 L 764.67,143.99 L 763.37,149.75 L 761.83,155.45 L 760.15,161.12 L 758.53,166.79 L 756.47,172.34 L 754.44,177.89 L 752.24,183.39 L 749.66,188.71 L 747.17,194.07 L 744.35,199.27 L 741.44,204.41 L 738.12,209.29 L 734.84,214.21 L 731.29,218.95 L 727.24,223.26 L 723.05,227.45 L 718.86,231.64 L 714.24,235.32 L 709.39,238.71 L 704.32,241.76 L 699.06,244.46 L 693.77,247.09 L 688.27,249.29 L 682.77,251.49 L 677.19,253.45 L 671.58,255.34 L 665.84,256.73 L 660.15,258.28 L 654.34,259.44 L 648.54,260.58 L 642.69,261.55 L 636.81,262.05 L 630.96,262.96 L 625.03,263.00 L 619.17,263.80 L 613.26,264.00 L 607.34,264.00 L 601.42,263.99 L 595.57,263.09 L 589.65,263.00 L 583.76,262.46 L 577.88,261.95 L 572.03,261.01 L 566.21,259.92 L 560.42,258.74 L 554.65,257.44 L 548.98,255.79 L 543.27,254.30 L 537.77,252.11 L 532.21,250.08 L 526.71,247.88 L 521.44,245.19 L 516.23,242.42 L 511.16,239.37 L 506.20,236.15 L 501.36,232.77 L 496.66,229.16 L 492.47,224.97 L 488.28,220.78 L 484.10,216.60 L 480.44,211.94 L 476.75,207.33 L 473.36,202.48 L 470.05,197.59 L 467.01,192.51 L 464.14,187.35 L 461.11,182.27 L 458.48,176.97 L 455.87,171.67 L 453.17,166.41 L 450.96,160.91 L 448.43,155.57 L 446.23,150.07 L 444.20,144.51 L 442.18,138.95 L 440.32,133.34 L 438.43,127.74 L 436.54,122.13 L 435.15,116.39 L 433.43,110.74 L 431.46,105.16 L 428.86,99.85 L 425.49,94.99 L 421.21,90.91 L 416.06,88.03 L 410.46,86.17 L 404.67,85.01 L 398.75,85.00 L 392.87,85.52 L 387.08,86.77 L 381.71,89.22 L 376.87,92.63 L 373.16,97.21 L 369.96,102.18 L 367.73,107.67 L 365.89,113.28 L 364.50,119.02 L 362.60,124.62 L 361.07,130.32 L 359.22,135.94 L 357.02,141.44 L 355.00,147.00 L 352.80,152.50 L 350.52,157.96 L 348.23,163.42 L 345.65,168.74 L 342.99,174.02 L 340.33,179.30 L 337.72,184.60 L 334.68,189.68 L 331.64,194.75 L 328.45,199.73 L 325.24,204.68 L 321.68,209.42 L 318.13,214.16 L 314.12,218.51 L 310.40,223.10 L 305.75,226.75 L 301.37,230.72 L 296.63,234.28 L 291.76,237.63 L 286.80,240.84 L 281.63,243.71 L 276.33,246.32 L 270.97,248.81 L 265.47,251.01 L 259.97,253.21 L 254.35,255.06 L 248.64,256.56 L 242.92,258.03 L 237.15,259.31 L 231.34,260.44 L 225.50,261.42 L 219.62,262.00 L 213.77,262.87 L 207.85,263.00 L 201.96,263.51 L 196.08,264.00 L 190.16,264.00 L 184.23,264.00 L 178.36,263.39 L 172.46,263.00 L 166.57,262.59 L 160.69,262.00 L 154.84,261.14 L 149.00,260.14 L 143.21,258.92 L 137.46,257.58 L 131.74,256.10 L 126.06,254.51 L 120.45,252.62 L 114.91,250.56 L 109.48,248.21 L 103.99,245.99 L 98.70,243.34 L 93.63,240.30 L 88.56,237.26 L 83.75,233.81 L 79.36,229.86 L 75.17,225.67 L 70.98,221.48 L 67.35,216.81 L 63.80,212.07 L 60.41,207.22 L 57.37,202.15 L 54.49,196.99 L 51.87,191.69 L 49.18,186.42 L 46.97,180.93 L 44.77,175.43 L 42.75,169.87 L 40.90,164.25 L 39.21,158.59 L 37.65,152.89 L 36.19,147.18 L 34.97,141.39 L 33.77,135.60 L 32.63,129.79 L 31.50,123.98 L 30.20,118.22 L 28.81,112.48 L 27.45,106.73 L 26.18,100.95 L 24.55,95.28 L 23.03,89.58 L 21.18,83.96 L 19.16,78.40 L 16.55,73.09 L 12.94,68.45 L 7.98,65.23 L 4.44,60.61 L 2.84,54.93 L 2.00,49.07 L 1.20,43.21 L 0.88,37.31 L 0.00,31.46 L 0.00,25.53 L 0.00,19.61 L 1.26,13.86 L 4.39,8.96 L 9.94,7.49 L 15.82,7.05 L 21.72,6.71 L 27.59,6.00 L 33.51,5.91 L 39.36,5.01 L 45.29,5.00 L 51.15,4.31 L 57.06,4.00 L 62.98,3.96 L 68.83,3.05 L 74.75,3.00 L 80.65,2.72 L 86.52,2.00 L 92.44,2.00 L 98.37,2.00 L 104.22,1.13 L 110.14,1.00 L 116.06,1.00 L 121.98,1.00 Z M 168.86,27.36 L 165.55,27.91 L 162.21,28.00 L 158.86,28.00 L 155.52,28.00 L 152.19,28.30 L 148.89,28.85 L 145.55,29.00 L 142.21,29.13 L 138.91,29.68 L 135.58,30.00 L 132.27,30.46 L 128.96,30.96 L 125.64,31.39 L 122.34,31.94 L 119.04,32.49 L 115.77,33.20 L 112.48,33.82 L 109.25,34.63 L 106.02,35.50 L 102.85,36.54 L 99.67,37.59 L 96.55,38.78 L 93.44,40.02 L 90.35,41.31 L 87.38,42.84 L 84.54,44.60 L 81.64,46.27 L 79.08,48.42 L 76.42,50.44 L 73.98,52.70 L 71.97,55.38 L 70.01,58.09 L 68.47,61.05 L 66.98,64.05 L 65.74,67.15 L 65.02,70.42 L 64.38,73.70 L 64.00,77.02 L 63.77,80.35 L 63.22,83.66 L 63.00,86.99 L 63.00,90.34 L 63.00,93.69 L 63.00,97.03 L 63.00,100.38 L 63.28,103.71 L 63.84,107.01 L 64.00,110.35 L 64.02,113.70 L 64.50,117.01 L 64.99,120.32 L 65.27,123.64 L 65.82,126.95 L 66.21,130.27 L 66.76,133.57 L 67.31,136.87 L 67.91,140.17 L 68.57,143.44 L 69.29,146.71 L 69.87,150.01 L 70.55,153.28 L 71.42,156.50 L 72.25,159.73 L 73.00,162.99 L 73.75,166.24 L 74.63,169.46 L 75.61,172.65 L 76.48,175.87 L 77.51,179.05 L 78.56,182.22 L 79.74,185.35 L 80.98,188.46 L 82.23,191.57 L 83.47,194.68 L 84.88,197.71 L 86.34,200.71 L 87.88,203.68 L 89.64,206.52 L 91.65,209.20 L 93.66,211.88 L 95.99,214.24 L 98.67,216.25 L 101.08,218.56 L 103.76,220.57 L 106.55,222.41 L 109.40,224.16 L 112.36,225.70 L 115.37,227.15 L 118.34,228.69 L 121.43,229.97 L 124.54,231.22 L 127.67,232.41 L 130.84,233.46 L 134.01,234.50 L 137.19,235.53 L 140.42,236.40 L 143.65,237.22 L 146.94,237.85 L 150.21,238.53 L 153.43,239.41 L 156.73,239.96 L 160.04,240.51 L 163.35,240.99 L 166.66,241.44 L 169.97,241.96 L 173.31,242.00 L 176.63,242.44 L 179.93,242.96 L 183.28,243.00 L 186.63,243.00 L 189.98,243.00 L 193.32,243.00 L 196.67,243.00 L 200.02,243.00 L 203.34,242.61 L 206.64,242.07 L 209.99,242.00 L 213.31,241.62 L 216.61,241.07 L 219.91,240.51 L 223.21,239.96 L 226.52,239.41 L 229.78,238.70 L 233.04,237.98 L 236.30,237.24 L 239.53,236.41 L 242.75,235.54 L 245.93,234.52 L 249.11,233.47 L 252.28,232.42 L 255.41,231.24 L 258.44,229.83 L 261.55,228.58 L 264.58,227.18 L 267.59,225.73 L 270.56,224.19 L 273.41,222.45 L 276.19,220.60 L 278.97,218.74 L 281.73,216.87 L 284.45,214.91 L 286.99,212.75 L 289.67,210.75 L 292.08,208.42 L 294.45,206.05 L 296.61,203.52 L 298.64,200.86 L 300.78,198.29 L 302.62,195.50 L 304.46,192.72 L 306.31,189.93 L 307.98,187.04 L 309.47,184.05 L 310.97,181.06 L 312.22,177.96 L 313.28,174.79 L 314.33,171.61 L 315.42,168.45 L 316.66,165.35 L 317.73,162.18 L 318.80,159.01 L 319.86,155.84 L 320.93,152.67 L 322.00,149.51 L 323.06,146.34 L 324.13,143.17 L 325.20,140.00 L 326.27,136.84 L 327.15,133.62 L 328.04,130.40 L 329.11,127.23 L 329.99,124.02 L 330.75,120.76 L 331.58,117.53 L 332.29,114.26 L 332.84,110.96 L 333.39,107.66 L 333.93,104.36 L 334.04,101.01 L 334.55,97.71 L 335.00,94.39 L 334.68,91.07 L 334.13,87.76 L 333.74,84.44 L 333.07,81.17 L 332.18,77.95 L 331.11,74.78 L 329.87,71.68 L 328.17,68.80 L 326.28,66.04 L 324.12,63.49 L 322.11,60.82 L 319.70,58.53 L 317.02,56.52 L 314.48,54.36 L 311.69,52.52 L 308.80,50.83 L 305.98,49.04 L 303.01,47.51 L 299.94,46.18 L 296.84,44.93 L 293.81,43.52 L 290.70,42.28 L 287.59,41.04 L 284.42,39.97 L 281.26,38.90 L 278.09,37.84 L 274.92,36.77 L 271.70,35.88 L 268.48,34.99 L 265.27,34.11 L 262.02,33.34 L 258.75,32.63 L 255.47,31.99 L 252.18,31.36 L 248.88,30.81 L 245.58,30.26 L 242.28,29.71 L 238.97,29.16 L 235.64,28.93 L 232.34,28.39 L 229.02,28.00 L 225.67,28.00 L 222.35,27.56 L 219.05,27.04 L 215.70,27.00 L 212.35,27.00 L 209.01,27.00 L 205.66,27.00 L 202.31,27.00 L 198.96,27.00 L 195.61,27.00 L 192.27,27.00 L 188.92,27.00 L 185.57,27.00 L 182.22,27.00 L 178.87,27.00 L 175.53,27.00 L 172.18,27.00 Z M 578.86,27.36 L 575.56,27.91 L 572.21,28.00 L 568.88,28.19 L 565.58,28.74 L 562.25,29.02 L 558.94,29.51 L 555.64,30.06 L 552.34,30.61 L 549.04,31.16 L 545.73,31.71 L 542.47,32.42 L 539.24,33.25 L 535.99,34.01 L 532.73,34.76 L 529.50,35.58 L 526.28,36.45 L 523.10,37.47 L 519.93,38.52 L 516.75,39.57 L 513.58,40.61 L 510.46,41.82 L 507.35,43.06 L 504.27,44.35 L 501.21,45.71 L 498.11,46.96 L 495.20,48.60 L 492.33,50.31 L 489.37,51.85 L 486.63,53.77 L 483.96,55.78 L 481.48,58.02 L 479.11,60.39 L 476.74,62.76 L 474.55,65.27 L 472.70,68.05 L 470.87,70.83 L 469.45,73.86 L 468.21,76.97 L 467.27,80.17 L 466.43,83.40 L 466.00,86.71 L 466.00,90.06 L 466.00,93.41 L 466.00,96.75 L 466.00,100.10 L 466.00,103.45 L 466.46,106.76 L 467.15,110.03 L 467.72,113.33 L 468.43,116.59 L 469.27,119.82 L 470.03,123.07 L 470.77,126.33 L 471.65,129.55 L 472.70,132.72 L 473.66,135.91 L 474.54,139.13 L 475.58,142.31 L 476.63,145.48 L 477.68,148.65 L 478.91,151.77 L 480.15,154.88 L 481.22,158.04 L 482.28,161.21 L 483.33,164.38 L 484.38,167.56 L 485.43,170.73 L 486.47,173.90 L 487.62,177.04 L 488.86,180.15 L 490.10,183.26 L 491.63,186.23 L 493.17,189.20 L 495.00,191.99 L 496.84,194.78 L 498.68,197.57 L 500.72,200.22 L 502.99,202.66 L 505.00,205.34 L 507.28,207.78 L 509.73,210.05 L 512.41,212.06 L 514.96,214.22 L 517.63,216.23 L 520.31,218.23 L 523.10,220.07 L 525.90,221.89 L 528.78,223.59 L 531.65,225.30 L 534.61,226.84 L 537.72,228.09 L 540.80,229.39 L 543.86,230.74 L 546.96,231.99 L 550.07,233.23 L 553.24,234.29 L 556.41,235.34 L 559.63,236.22 L 562.89,236.96 L 566.14,237.72 L 569.37,238.56 L 572.63,239.27 L 575.93,239.82 L 579.24,240.37 L 582.54,240.92 L 585.84,241.47 L 589.15,241.97 L 592.49,242.00 L 595.80,242.47 L 599.11,242.97 L 602.46,243.00 L 605.80,243.00 L 609.15,243.00 L 612.50,243.00 L 615.85,243.00 L 619.19,243.00 L 622.51,242.58 L 625.81,242.05 L 629.16,242.00 L 632.47,241.59 L 635.78,241.06 L 639.10,240.65 L 642.40,240.10 L 645.70,239.55 L 648.97,238.87 L 652.26,238.25 L 655.49,237.42 L 658.71,236.55 L 661.94,235.70 L 665.13,234.75 L 668.30,233.69 L 671.48,232.64 L 674.63,231.55 L 677.74,230.30 L 680.85,229.06 L 683.85,227.59 L 686.82,226.07 L 689.82,224.60 L 692.70,222.89 L 695.46,221.02 L 698.20,219.10 L 700.88,217.09 L 703.49,215.01 L 705.86,212.64 L 707.96,210.05 L 709.97,207.37 L 711.75,204.55 L 713.20,201.54 L 714.74,198.57 L 716.19,195.56 L 717.59,192.53 L 718.83,189.42 L 720.08,186.31 L 721.14,183.15 L 722.21,179.98 L 723.28,176.81 L 724.33,173.64 L 725.37,170.47 L 726.25,167.25 L 727.00,163.99 L 727.75,160.74 L 728.58,157.51 L 729.45,154.29 L 730.13,151.02 L 730.71,147.72 L 731.42,144.45 L 732.09,141.18 L 732.69,137.89 L 733.24,134.58 L 733.79,131.28 L 734.17,127.96 L 734.72,124.66 L 735.01,121.33 L 735.50,118.02 L 735.98,114.71 L 736.00,111.37 L 736.33,108.04 L 736.88,104.74 L 737.00,101.40 L 737.00,98.06 L 737.00,94.71 L 737.00,91.36 L 737.00,88.01 L 737.00,84.67 L 736.72,81.34 L 736.17,78.04 L 735.94,74.70 L 735.40,71.40 L 734.53,68.18 L 733.50,65.00 L 732.35,61.87 L 730.70,58.96 L 728.83,56.20 L 726.87,53.49 L 724.57,51.07 L 721.96,48.97 L 719.28,46.96 L 716.56,45.03 L 713.68,43.32 L 710.68,41.87 L 707.71,40.34 L 704.62,39.05 L 701.45,37.98 L 698.29,36.92 L 695.12,35.85 L 691.90,34.96 L 688.65,34.22 L 685.41,33.40 L 682.15,32.69 L 678.85,32.14 L 675.55,31.59 L 672.24,31.06 L 668.92,30.65 L 665.62,30.10 L 662.29,29.88 L 658.98,29.33 L 655.66,29.00 L 652.31,28.99 L 649.01,28.50 L 645.70,28.02 L 642.35,28.00 L 639.00,28.00 L 635.65,28.00 L 632.34,27.56 L 629.04,27.04 L 625.69,27.00 L 622.34,27.00 L 619.00,27.00 L 615.65,27.00 L 612.30,27.00 L 608.95,27.00 L 605.61,27.00 L 602.26,27.00 L 598.91,27.00 L 595.57,27.00 L 592.22,27.00 L 588.87,27.00 L 585.52,27.00 L 582.18,27.00 Z"/></svg>